<svg width="94" height="27" viewBox="0 0 94 27" fill="none" xmlns="http://www.w3.org/2000/svg">
<path d="M17.8887 10.8906C17.8887 12.5397 17.4183 13.9896 16.4775 15.2402C15.5368 16.4798 14.2529 17.3984 12.626 17.9961C11.7516 18.3392 10.7334 18.5938 9.57129 18.7598C8.42025 18.9258 7.28581 19.0143 6.16797 19.0254L6.20117 25.2344H0.706055C0.717122 24.2272 0.72819 22.8548 0.739258 21.1172C0.761393 19.3685 0.772461 16.7454 0.772461 13.248C0.772461 11.9974 0.766927 10.4811 0.755859 8.69922C0.744792 6.90625 0.72819 5.00814 0.706055 3.00488C1.2373 2.99382 1.82943 2.98828 2.48242 2.98828C3.13542 2.97721 3.73861 2.97168 4.29199 2.97168C6.67155 2.97168 8.55306 3.07682 9.93652 3.28711C11.3311 3.4974 12.5596 3.86263 13.6221 4.38281C14.9834 5.02474 16.0348 5.89909 16.7764 7.00586C17.5179 8.10156 17.8887 9.39648 17.8887 10.8906ZM12.2607 11.2393C12.2607 10.387 12.0671 9.64551 11.6797 9.01465C11.3034 8.38379 10.7279 7.88021 9.95312 7.50391C9.43294 7.23828 8.87402 7.0778 8.27637 7.02246C7.68978 6.95605 7.09212 6.92285 6.4834 6.92285C6.41699 6.92285 6.33398 6.92285 6.23438 6.92285C6.13477 6.92285 6.05176 6.92285 5.98535 6.92285C5.98535 7.0778 5.97982 7.72526 5.96875 8.86523C5.95768 9.99414 5.95215 10.9128 5.95215 11.6211C5.95215 12.3073 5.95215 13.1429 5.95215 14.1279C5.95215 15.1019 5.95215 15.6331 5.95215 15.7217C6.02962 15.7217 6.1237 15.7217 6.23438 15.7217C6.34505 15.7217 6.42806 15.7217 6.4834 15.7217C7.02572 15.7217 7.61784 15.6774 8.25977 15.5889C8.91276 15.4893 9.45508 15.3288 9.88672 15.1074C10.6615 14.7311 11.248 14.2441 11.6465 13.6465C12.056 13.0378 12.2607 12.2354 12.2607 11.2393ZM26.4551 25.2344H21.3584C21.3584 24.8249 21.3639 23.4303 21.375 21.0508C21.3971 18.6602 21.4082 15.7549 21.4082 12.335C21.4082 10.8408 21.4027 9.12533 21.3916 7.18848C21.3805 5.25163 21.3695 3.1543 21.3584 0.896484H26.4551C26.4329 3.03255 26.4163 5.17969 26.4053 7.33789C26.3942 9.48503 26.3887 11.2171 26.3887 12.5342C26.3887 14.3271 26.3997 16.7731 26.4219 19.8721C26.444 22.971 26.4551 24.7585 26.4551 25.2344ZM38.6074 24.9688L34.457 26.7617C32.321 23.9616 30.5391 21.737 29.1113 20.0879C27.6836 18.4277 26.7926 17.3265 26.4385 16.7842V16.751C26.7484 16.2972 27.6449 15.1406 29.1279 13.2812C30.6221 11.4108 31.9557 9.60677 33.1289 7.86914L37.6611 9.5957C36.5765 11.0456 35.4974 12.4512 34.4238 13.8125C33.3613 15.1738 32.6973 16.026 32.4316 16.3691V16.3857C32.4316 16.3857 33.0404 17.2269 34.2578 18.9092C35.4863 20.5804 36.9362 22.6003 38.6074 24.9688ZM54.9932 16.4189C54.9932 19.1305 54.9876 21.2223 54.9766 22.6943C54.9766 24.1663 54.9766 25.0186 54.9766 25.251C54.7995 25.2731 54.0801 25.3229 52.8184 25.4004C51.5566 25.4779 50.2174 25.5166 48.8008 25.5166C47.8711 25.5166 46.8086 25.4391 45.6133 25.2842C44.429 25.1292 43.4385 24.8802 42.6416 24.5371C41.6234 24.0944 40.8265 23.5133 40.251 22.7939C39.6755 22.0635 39.3877 21.2113 39.3877 20.2373C39.3877 19.1748 39.6921 18.2673 40.3008 17.5146C40.9206 16.762 41.8835 16.1423 43.1895 15.6553C44.0638 15.3232 45.1429 15.0632 46.4268 14.875C47.7106 14.6868 48.8727 14.554 49.9131 14.4766C49.8799 13.8789 49.7194 13.3919 49.4316 13.0156C49.1549 12.6283 48.679 12.3294 48.0039 12.1191C47.5612 11.9753 47.0687 11.8757 46.5264 11.8203C45.9951 11.7539 45.3587 11.7207 44.6172 11.7207C43.9421 11.7207 43.3665 11.7318 42.8906 11.7539C42.4147 11.776 41.9001 11.7982 41.3467 11.8203L41.7949 8.11816C42.0163 8.1071 42.3704 8.09603 42.8574 8.08496C43.3444 8.06283 44.0306 8.05176 44.916 8.05176C46.7865 8.05176 48.3415 8.21224 49.5811 8.5332C50.8317 8.85417 51.8831 9.38542 52.7354 10.127C53.5212 10.8021 54.0911 11.6266 54.4453 12.6006C54.8105 13.5635 54.9932 14.8363 54.9932 16.4189ZM50.1787 19.4736C50.1787 19.1195 50.1787 18.71 50.1787 18.2451C50.1787 17.7692 50.1732 17.2712 50.1621 16.751C49.8411 16.762 49.2712 16.8285 48.4521 16.9502C47.6331 17.0609 46.9027 17.2546 46.2607 17.5312C45.818 17.7083 45.4085 17.985 45.0322 18.3613C44.667 18.7376 44.4844 19.2025 44.4844 19.7559C44.4844 20.3757 44.6449 20.8682 44.9658 21.2334C45.2979 21.5986 45.724 21.8809 46.2441 22.0801C46.6204 22.2129 47.0465 22.3125 47.5225 22.3789C47.9984 22.4453 48.513 22.4785 49.0664 22.4785C49.2103 22.4785 49.3763 22.4785 49.5645 22.4785C49.7526 22.4674 49.9518 22.4619 50.1621 22.4619C50.1621 22.318 50.1621 21.9805 50.1621 21.4492C50.1732 20.918 50.1787 20.2594 50.1787 19.4736ZM73.5371 25.1846C72.9727 25.1846 71.7607 25.1846 69.9014 25.1846C68.0531 25.1735 66.6198 25.168 65.6016 25.168C64.362 25.168 63.0228 25.1735 61.584 25.1846C60.1452 25.1846 59.2819 25.1846 58.9941 25.1846L57.7988 22.8936C58.7396 21.6761 59.9238 20.1432 61.3516 18.2949C62.7904 16.4466 64.3841 14.377 66.1328 12.0859L66.1162 12.0527C65.6956 12.0527 65.2474 12.0527 64.7715 12.0527C64.2956 12.0527 63.8418 12.0527 63.4102 12.0527C62.5911 12.0527 61.5951 12.0583 60.4219 12.0693C59.2487 12.0693 58.5625 12.0693 58.3633 12.0693V8.38379C58.6953 8.38379 59.6748 8.38932 61.3018 8.40039C62.9398 8.40039 64.2347 8.40039 65.1865 8.40039C66.1937 8.40039 67.4499 8.40039 68.9551 8.40039C70.4714 8.38932 71.4785 8.38379 71.9766 8.38379L73.2715 10.5254C71.5007 12.7389 69.7575 14.9746 68.042 17.2324C66.3265 19.4792 65.2529 20.8848 64.8213 21.4492L64.8379 21.4824C65.2031 21.4824 65.6735 21.4824 66.249 21.4824C66.8356 21.4824 67.4554 21.4824 68.1084 21.4824C69.7575 21.4824 70.9915 21.4769 71.8105 21.4658C72.6296 21.4548 73.2051 21.4492 73.5371 21.4492V25.1846ZM93.3926 16.7842C93.3926 18.068 93.1491 19.2965 92.6621 20.4697C92.1751 21.6318 91.4502 22.6501 90.4873 23.5244C89.6794 24.2549 88.7607 24.8027 87.7314 25.168C86.7021 25.5221 85.5788 25.6992 84.3613 25.6992C83.1771 25.6992 82.0592 25.5221 81.0078 25.168C79.9564 24.8027 79.0267 24.2604 78.2188 23.541C77.2891 22.7109 76.5697 21.7038 76.0605 20.5195C75.5625 19.3353 75.3135 18.0791 75.3135 16.751C75.3135 15.445 75.5293 14.2607 75.9609 13.1982C76.3926 12.1247 77.0622 11.1507 77.9697 10.2764C78.7887 9.47949 79.7406 8.8763 80.8252 8.4668C81.9209 8.05729 83.0941 7.85254 84.3447 7.85254C85.6064 7.85254 86.763 8.04069 87.8145 8.41699C88.8659 8.79329 89.8122 9.37435 90.6533 10.1602C91.5719 11.0345 92.2581 12.0251 92.7119 13.1318C93.1657 14.2275 93.3926 15.445 93.3926 16.7842ZM88.3291 16.8506C88.3291 16.0648 88.2074 15.2845 87.9639 14.5098C87.7314 13.735 87.3496 13.0876 86.8184 12.5674C86.5085 12.2575 86.1377 12.0251 85.7061 11.8701C85.2744 11.7041 84.8262 11.6211 84.3613 11.6211C83.8079 11.6211 83.3265 11.7096 82.917 11.8867C82.5186 12.0527 82.1312 12.335 81.7549 12.7334C81.3122 13.1872 80.9691 13.7848 80.7256 14.5264C80.4932 15.2679 80.377 16.0094 80.377 16.751C80.377 17.6143 80.4932 18.4111 80.7256 19.1416C80.9691 19.861 81.373 20.4863 81.9375 21.0176C82.2474 21.3275 82.6126 21.5599 83.0332 21.7148C83.4538 21.8587 83.8965 21.9307 84.3613 21.9307C84.8483 21.9307 85.3132 21.8421 85.7559 21.665C86.2096 21.488 86.597 21.2334 86.918 20.9014C87.3717 20.4144 87.7204 19.8112 87.9639 19.0918C88.2074 18.3724 88.3291 17.6253 88.3291 16.8506Z" fill="#E24E4D"/>
</svg>
